<?xml version="1.0" standalone="no"?>
<!DOCTYPE svg PUBLIC "-//W3C//DTD SVG 20010904//EN"
 "http://www.w3.org/TR/2001/REC-SVG-20010904/DTD/svg10.dtd">
<svg version="1.0" xmlns="http://www.w3.org/2000/svg"
 width="700.000000pt" height="700.000000pt" viewBox="0 0 700.000000 700.000000"
 preserveAspectRatio="xMidYMid meet">
<metadata>
Created by potrace 1.14, written by Peter Selinger 2001-2017
</metadata>
<g transform="translate(0.000000,700.000000) scale(0.100000,-0.100000)"
fill="#000000" stroke="none">
<path d="M1763 6562 c-13 -2 -23 -6 -23 -10 0 -4 -10 -18 -23 -32 -12 -14 -78
-97 -147 -185 -68 -88 -187 -239 -264 -335 -77 -96 -155 -194 -173 -217 l-33
-42 1427 1 c1604 0 1725 -2 1968 -43 111 -19 230 -63 340 -127 107 -63 271
-226 343 -344 91 -148 161 -353 179 -523 9 -88 8 -267 -1 -363 -29 -313 -158
-575 -377 -767 -133 -118 -369 -221 -599 -261 -14 -3 -32 -7 -40 -9 -8 -3 -36
-7 -62 -10 -25 -3 -56 -8 -68 -10 -23 -4 -119 -13 -220 -20 -30 -2 -693 -4
-1472 -5 l-1418 -2 0 -1277 0 -1276 448 0 447 0 3 866 2 867 933 1 c890 0
1138 3 1272 16 79 8 302 34 340 41 115 19 166 29 285 59 374 93 662 244 871
455 289 293 501 724 563 1145 29 193 39 474 22 620 -43 378 -149 684 -331 960
-261 396 -605 619 -1140 740 -29 7 -183 33 -235 40 -25 3 -56 8 -70 10 -23 3
-56 6 -225 20 -155 13 -549 18 -1470 19 -566 1 -1040 0 -1052 -2z"/>
<path d="M1230 5511 c0 -4 8 -14 18 -22 9 -9 31 -31 47 -50 79 -89 214 -239
256 -284 25 -27 72 -79 105 -115 32 -36 97 -108 144 -159 47 -51 93 -103 103
-115 23 -26 157 -175 177 -196 8 -9 51 -56 95 -105 44 -50 89 -99 100 -111 11
-12 54 -59 95 -104 41 -46 98 -108 125 -139 80 -87 87 -95 155 -171 36 -40 76
-85 90 -100 14 -15 61 -67 105 -116 129 -142 138 -153 182 -199 l42 -45 413 5
c227 2 429 7 448 9 57 8 112 16 165 22 27 3 51 7 54 9 3 3 -130 154 -284 321
-11 12 -54 59 -95 105 -41 46 -100 111 -130 144 -53 59 -100 110 -325 360 -59
66 -124 138 -144 160 -20 22 -63 69 -96 105 -180 199 -227 251 -375 415 -177
196 -219 242 -295 325 l-50 55 -562 1 c-310 0 -563 -2 -563 -5z"/>
<path d="M4928 2375 c-17 -18 -398 -77 -580 -90 -43 -3 -101 -8 -130 -10 -29
-2 -106 -5 -170 -6 l-117 -2 20 -26 c12 -14 35 -42 53 -61 18 -19 76 -84 131
-145 54 -60 115 -128 136 -150 20 -22 48 -52 61 -66 61 -70 259 -291 283 -315
5 -6 39 -44 75 -84 36 -40 72 -80 80 -89 9 -9 52 -56 95 -106 44 -49 83 -92
86 -95 6 -5 285 -314 328 -364 57 -65 8 -60 617 -61 306 0 557 2 559 5 2 3
-22 33 -53 66 -32 34 -86 94 -122 134 -36 41 -70 78 -75 84 -6 6 -53 58 -105
116 -52 58 -97 107 -100 110 -3 3 -46 50 -95 105 -49 55 -105 118 -125 140
-21 22 -81 90 -136 150 -54 61 -101 112 -104 115 -3 3 -25 28 -49 55 -24 28
-65 73 -90 100 -25 28 -84 93 -131 145 -47 52 -89 100 -95 106 -5 6 -47 51
-91 100 -45 49 -91 100 -101 113 -18 22 -46 35 -55 26z"/>
</g>
</svg>
